<?xml version="1.0" encoding="utf-8"?>
<!-- Svg Vector Icons : http://www.onlinewebfonts.com/icon -->
<!DOCTYPE svg PUBLIC "-//W3C//DTD SVG 1.1//EN" "http://www.w3.org/Graphics/SVG/1.1/DTD/svg11.dtd">
<svg version="1.1" xmlns="http://www.w3.org/2000/svg" xmlns:xlink="http://www.w3.org/1999/xlink" x="0px" y="0px" viewBox="0 0 256 256" enable-background="new 0 0 256 256" xml:space="preserve">
<metadata> Svg Vector Icons : http://www.onlinewebfonts.com/icon </metadata>
<g> <path fill="#333333" d="M142.2,43v18.9h85V43H142.2z M123.3,57.2h-33c-2.6,0-4.7-2.1-4.7-4.7s2.1-4.7,4.7-4.7h33V43 c0-10.4,8.5-18.9,18.9-18.9h85c10.4,0,18.9,8.5,18.9,18.9v18.9c0,10.4-8.5,18.9-18.9,18.9h-85c-10.4,0-18.9-8.5-18.9-18.9V57.2z  M123.3,213H47.8c-10.4,0-18.9-8.5-18.9-18.9V64.5l9.4,13.6v116c0,5.2,4.2,9.4,9.4,9.4h75.5v-9.4c0-10.4,8.5-18.9,18.9-18.9h85 c10.4,0,18.9,8.5,18.9,18.9V213c0,10.4-8.5,18.9-18.9,18.9h-85C131.7,231.8,123.3,223.4,123.3,213z M123.3,132.7H80.8 c-10.4,0-18.9-8.5-18.9-18.9V73.5l9.4,7.6v32.7c0,5.2,4.2,9.4,9.4,9.4h42.5v-4.7c0-10.4,8.5-18.9,18.9-18.9h85 c10.4,0,18.9,8.5,18.9,18.9v18.9c0,10.4-8.5,18.9-18.9,18.9h-85c-10.4,0-18.9-8.5-18.9-18.9V132.7z M142.2,118.6v18.9h85v-18.9 H142.2z M142.2,194.1V213h85v-18.9H142.2z"/> <path fill="#2e6cb5" d="M28.9,43v18.9h47.2V43H28.9z M28.9,24.2h47.2C86.5,24.2,95,32.6,95,43v18.9c0,10.4-8.5,18.9-18.9,18.9H28.9 C18.5,80.8,10,72.3,10,61.9V43C10,32.6,18.5,24.2,28.9,24.2z"/></g>
</svg>